<svg width="192" height="192" style="shape-rendering:geometricPrecision;text-rendering:geometricPrecision;image-rendering:optimizeQuality;fill-rule:evenodd;clip-rule:evenodd" xmlns="http://www.w3.org/2000/svg"><g style="fill:#fff"><path style="opacity:.975;fill:#fff" fill="#000" d="M86.5 15.5c24.642-2.61 40.809 7.722 48.5 31a313 313 0 0 1 .5 25c11.871.032 19.704 5.698 23.5 17a681.34 681.34 0 0 1-1 73c-3.314 6.649-8.481 11.149-15.5 13.5-31.333.667-62.667.667-94 0-7.02-2.351-12.186-6.851-15.5-13.5a681.417 681.417 0 0 1-1-73c3.796-11.302 11.63-16.968 23.5-17-3.753-18.518.914-34.351 14-47.5 5.406-3.514 11.072-6.347 17-8.5Zm6 16c12.847.035 21.347 6.035 25.5 18a108.486 108.486 0 0 1 1.5 22h-48c-.166-6.342 0-12.675.5-19 2.32-11.486 9.153-18.486 20.5-21Zm-37 56a1217.2 1217.2 0 0 1 84 1.5c1.817 1.8 2.984 3.966 3.5 6.5a783.858 783.858 0 0 1 0 56c-.537 4.537-3.037 7.037-7.5 7.5a905.238 905.238 0 0 1-84-1c-1.817-1.8-2.984-3.966-3.5-6.5a784.21 784.21 0 0 1 0-56c.718-4.546 3.218-7.213 7.5-8Z"/></g></svg>
