<svg width="192" height="192" style="shape-rendering:geometricPrecision;text-rendering:geometricPrecision;image-rendering:optimizeQuality;fill-rule:evenodd;clip-rule:evenodd" xmlns="http://www.w3.org/2000/svg"><g style="fill:#fff"><path style="opacity:.994;fill:#fff" fill="#000" d="M25.5 23.5h70v16h-64v112h64v16c-23.336.167-46.669 0-70-.5-4.5-1.833-7.667-5-9.5-9.5a3844.058 3844.058 0 0 1 0-124c2.022-4.52 5.189-7.853 9.5-10Z"/></g><g style="fill:#fff"><path style="opacity:.971;fill:#fff" fill="#000" d="M134.5 55.5a578.829 578.829 0 0 1 41 40 2176.631 2176.631 0 0 1-39 39.5c-.667.667-1.333.667-2 0l-11-11 20-20c-26.665-.5-53.331-.667-80-.5v-16c26.669.167 53.335 0 80-.5l-20-20a177.724 177.724 0 0 0 11-11.5Z"/></g></svg>
