<svg width="192" height="192" style="shape-rendering:geometricPrecision;text-rendering:geometricPrecision;image-rendering:optimizeQuality;fill-rule:evenodd;clip-rule:evenodd" xmlns="http://www.w3.org/2000/svg"><g style="fill:#fff"><path style="opacity:.981;fill:#fff" fill="#000" d="M87.5 31.5c4.722-.947 8.556.386 11.5 4 .667 16 .667 32 0 48-5 5.333-10 5.333-15 0-.667-16-.667-32 0-48a19.568 19.568 0 0 0 3.5-4Z"/></g><g style="fill:#fff"><path style="opacity:.941;fill:#fff" fill="#000" d="M57.5 56.5c9.86.043 13.026 4.71 9.5 14-15.848 19.147-14.681 37.314 3.5 54.5 18.489 10.667 34.989 8.167 49.5-7.5 10.69-17.543 9.023-33.876-5-49-1.267-10.07 2.899-13.57 12.5-10.5 13.353 13.06 18.52 28.893 15.5 47.5-8.006 29.925-27.506 44.091-58.5 42.5-21.89-3.888-36.39-16.388-43.5-37.5-5.214-21.51.286-39.51 16.5-54Z"/></g></svg>
