<?xml version="1.0" encoding="UTF-8"?>
<!DOCTYPE svg PUBLIC "-//W3C//DTD SVG 1.1//EN" "http://www.w3.org/Graphics/SVG/1.1/DTD/svg11.dtd">
<svg xmlns="http://www.w3.org/2000/svg" version="1.1" width="192px" height="192px" style="shape-rendering:geometricPrecision; text-rendering:geometricPrecision; image-rendering:optimizeQuality; fill-rule:evenodd; clip-rule:evenodd" xmlns:xlink="http://www.w3.org/1999/xlink">
<g><path style="opacity:0.981" fill="#000000" d="M 87.5,31.5 C 92.2225,30.5531 96.0558,31.8864 99,35.5C 99.6667,51.5 99.6667,67.5 99,83.5C 94,88.8333 89,88.8333 84,83.5C 83.3333,67.5 83.3333,51.5 84,35.5C 85.3756,34.2949 86.5423,32.9616 87.5,31.5 Z"/></g>
<g><path style="opacity:0.941" fill="#000000" d="M 57.5,56.5 C 67.3599,56.5431 70.5265,61.2098 67,70.5C 51.1521,89.6469 52.3187,107.814 70.5,125C 88.9885,135.667 105.489,133.167 120,117.5C 130.69,99.9568 129.023,83.6235 115,68.5C 113.733,58.4304 117.899,54.9304 127.5,58C 140.853,71.0601 146.02,86.8934 143,105.5C 134.994,135.425 115.494,149.591 84.5,148C 62.6099,144.112 48.1099,131.612 41,110.5C 35.7859,88.9899 41.2859,70.9899 57.5,56.5 Z"/></g>
</svg>
