<svg width="192" height="192" style="shape-rendering:geometricPrecision;text-rendering:geometricPrecision;image-rendering:optimizeQuality;fill-rule:evenodd;clip-rule:evenodd" xmlns="http://www.w3.org/2000/svg"><path style="opacity:.967;fill:#fff" fill="#282828" d="M91.5 13.5c36.521-.493 63.021 15.506 79.5 48 14.409 38.197 6.575 71.03-23.5 98.5-34.663 24.665-69.33 24.665-104 0C13.46 132.534 5.627 99.7 20 61.5A58.188 58.188 0 0 1 29.5 46C16.645 47.16 11.812 41.66 15 29.5a11.529 11.529 0 0 1 4.5-3.5 400.23 400.23 0 0 1 40 0c2.5 1.167 4.333 3 5.5 5.5a400.23 400.23 0 0 1 0 40c-3.748 6.042-8.915 7.542-15.5 4.5a11.529 11.529 0 0 1-3.5-4.5l-1-11c-15.665 24.72-14.998 49.052 2 73 20.168 22.416 44.335 28.583 72.5 18.5 29.639-15.445 41.473-39.612 35.5-72.5-7.167-21.833-21.667-36.333-43.5-43.5a155.446 155.446 0 0 1-22-4c-4.315-4.121-5.149-8.955-2.5-14.5 1.397-1.57 2.897-2.904 4.5-4Z"/></svg>
