<?xml version="1.0" encoding="UTF-8"?>
<!DOCTYPE svg PUBLIC "-//W3C//DTD SVG 1.1//EN" "http://www.w3.org/Graphics/SVG/1.1/DTD/svg11.dtd">
<svg xmlns="http://www.w3.org/2000/svg" version="1.1" width="192px" height="192px" style="shape-rendering:geometricPrecision; text-rendering:geometricPrecision; image-rendering:optimizeQuality; fill-rule:evenodd; clip-rule:evenodd" xmlns:xlink="http://www.w3.org/1999/xlink">
<g><path style="opacity:0.967" fill="#282828" d="M 91.5,13.5 C 128.021,13.0065 154.521,29.0065 171,61.5C 185.409,99.6971 177.575,132.53 147.5,160C 112.837,184.665 78.1706,184.665 43.5,160C 13.4607,132.534 5.62736,99.7003 20,61.5C 22.3733,55.805 25.54,50.6384 29.5,46C 16.6448,47.1595 11.8115,41.6595 15,29.5C 16.214,27.9512 17.714,26.7845 19.5,26C 32.8333,25.3333 46.1667,25.3333 59.5,26C 62,27.1667 63.8333,29 65,31.5C 65.6667,44.8333 65.6667,58.1667 65,71.5C 61.2519,77.5422 56.0852,79.0422 49.5,76C 47.9512,74.786 46.7845,73.286 46,71.5C 45.6667,67.8333 45.3333,64.1667 45,60.5C 29.3351,85.2191 30.0018,109.552 47,133.5C 67.1679,155.916 91.3346,162.083 119.5,152C 149.139,136.555 160.973,112.388 155,79.5C 147.833,57.6667 133.333,43.1667 111.5,36C 104.044,35.1899 96.7103,33.8566 89.5,32C 85.1847,27.8788 84.3513,23.0454 87,17.5C 88.3968,15.9297 89.8968,14.5964 91.5,13.5 Z"/></g>
</svg>
