<?xml version="1.0" encoding="UTF-8"?>
<!DOCTYPE svg PUBLIC "-//W3C//DTD SVG 1.1//EN" "http://www.w3.org/Graphics/SVG/1.1/DTD/svg11.dtd">
<svg xmlns="http://www.w3.org/2000/svg" version="1.1" width="256px" height="256px" style="shape-rendering:geometricPrecision; text-rendering:geometricPrecision; image-rendering:optimizeQuality; fill-rule:evenodd; clip-rule:evenodd" xmlns:xlink="http://www.w3.org/1999/xlink">
<g><path style="opacity:0.997" fill="#101817" d="M 105.5,16.5 C 113.81,14.3368 117.644,17.3368 117,25.5C 96.4035,49.7269 91.0702,77.0602 101,107.5C 111.451,133.621 130.284,150.121 157.5,157C 184.586,162.229 208.586,155.896 229.5,138C 232.956,136.877 235.79,137.71 238,140.5C 234.832,172.666 220.332,198.5 194.5,218C 158.738,242.155 120.738,246.155 80.5,230C 37.0781,207.48 15.0781,171.813 14.5,123C 19.2715,73.5761 44.6048,39.5761 90.5,21C 95.664,19.6314 100.664,18.1314 105.5,16.5 Z"/></g>
</svg>
