<svg width="256" height="256" style="shape-rendering:geometricPrecision;text-rendering:geometricPrecision;image-rendering:optimizeQuality;fill-rule:evenodd;clip-rule:evenodd" xmlns="http://www.w3.org/2000/svg"><path style="opacity:.997;fill:#fff;fill-opacity:1" fill="#101817" d="M105.5 16.5c8.31-2.163 12.144.837 11.5 9-20.597 24.227-25.93 51.56-16 82 10.451 26.121 29.284 42.621 56.5 49.5 27.086 5.229 51.086-1.104 72-19 3.456-1.123 6.29-.29 8.5 2.5-3.168 32.166-17.668 58-43.5 77.5-35.762 24.155-73.762 28.155-114 12-43.422-22.52-65.422-58.187-66-107 4.771-49.424 30.105-83.424 76-102a236.328 236.328 0 0 0 15-4.5Z"/></svg>
